<svg id="Layer_1" data-name="Layer 1" xmlns="http://www.w3.org/2000/svg" xmlns:xlink="http://www.w3.org/1999/xlink" viewBox="0 0 212.7 212.56"><defs><style>.cls-1,.cls-2,.cls-3,.cls-4,.cls-5,.cls-6,.cls-7{fill-rule:evenodd;}.cls-1{fill:url(#New_Gradient_Swatch_2);}.cls-2{fill:url(#New_Gradient_Swatch_1);}.cls-3{fill:url(#New_Gradient_Swatch_1-2);}.cls-4{fill:url(#New_Gradient_Swatch_3);}.cls-5{fill:url(#New_Gradient_Swatch_2-2);}.cls-7{fill:#fff;}</style><linearGradient id="New_Gradient_Swatch_2" x1="302.09" y1="145.21" x2="328.69" y2="134.26" gradientUnits="userSpaceOnUse"><stop offset="0" stop-color="#f60"/><stop offset="1" stop-color="#fc0"/></linearGradient><linearGradient id="New_Gradient_Swatch_1" x1="253.31" y1="176.36" x2="362.06" y2="33.96" gradientUnits="userSpaceOnUse"><stop offset="0" stop-color="#005082"/><stop offset="0.6" stop-color="#1e82c0"/><stop offset="1" stop-color="#3db5ff"/></linearGradient><linearGradient id="New_Gradient_Swatch_1-2" x1="271.63" y1="248.98" x2="326.4" y2="109.72" xlink:href="#New_Gradient_Swatch_1"/><linearGradient id="New_Gradient_Swatch_3" x1="266.02" y1="160.78" x2="358.34" y2="88.8" gradientUnits="userSpaceOnUse"><stop offset="0" stop-color="#e6e6e6"/><stop offset="1" stop-color="#fefefe"/></linearGradient><linearGradient id="New_Gradient_Swatch_2-2" x1="345.46" y1="134.87" x2="401.81" y2="130.53" gradientTransform="translate(1.48 -4.49) rotate(0.79)" xlink:href="#New_Gradient_Swatch_2"/></defs><title>PhraseApp icon</title><path class="cls-1" d="M316.15,81.1a55.89,55.89,0,1,0,19.41,110.07Z" transform="translate(-178.21 -51.22)"/><path class="cls-2" d="M203.45,106.87a52,52,0,0,1-25.25-36.08c19.29,12.46,63.07-11.11,102.73-18.11A108.91,108.91,0,0,1,361.33,71l-6,13.06-28.78,32.1-18.49,73c-5.36,19.49-1.48,46.2,35.94,72.4-99.87,17.61-179-70.87-140.54-154.65" transform="translate(-178.21 -51.22)"/><path class="cls-3" d="M355.53,83.6l-.2.45-28.78,32.1-18.49,73c-5.34,19.39,5.77,48.2,35.94,72.4-131.38-8.14-145.82-165-30.25-189.2,11.86-2.48,27.5,6.19,41.78,11.27" transform="translate(-178.21 -51.22)"/><path class="cls-4" d="M353.53,81.59c.52.35,1.86,1.13,2.37,1.49l-47.84,106c-23.06-4.78-40.38-19.28-45.39-47.7s15.84-63,48.07-68.65a59,59,0,0,1,42.79,8.81" transform="translate(-178.21 -51.22)"/><path class="cls-5" d="M361.06,70.79a71.41,71.41,0,0,1-30.14,128.55c14.11-19.57-30.7-32.06-21.15-55.62,6.07-15,21.4-6.44,27.91-20.47Z" transform="translate(-178.21 -51.22)"/><path class="cls-6" d="M315.48,86.72a17,17,0,1,0,17,17,17,17,0,0,0-17-17" transform="translate(-178.21 -51.22)"/><path class="cls-7" d="M320.23,91.35a6,6,0,1,0,6,6,6,6,0,0,0-6-6" transform="translate(-178.21 -51.22)"/></svg>